<svg xmlns="http://www.w3.org/2000/svg" viewBox="0 0 318 318"><defs><style>.cls-1{fill:#292929;}</style></defs><g id="Layer_2" data-name="Layer 2"><g id="Layer_1-2" data-name="Layer 1"><polygon class="cls-1" points="265 254 265 172 159 172 53 172 53 254 159 254 265 254"/><path class="cls-1" d="M270,242,296.78,238c.11,0,.21,0,.31,0A158,158,0,0,0,318,159c0-2.22-.06-4.43-.15-6.64L270,181.21Z"/><path class="cls-1" d="M270,259H48V247.11l-23.76-3.63a160.51,160.51,0,0,0,22.33,28,159,159,0,0,0,224.86,0,160.26,160.26,0,0,0,22.34-28L270,247.08Z"/><path class="cls-1" d="M48,181.41l-47.86-29C.06,154.58,0,156.79,0,159a158,158,0,0,0,20.89,78.9L48,242.05Z"/><path class="cls-1" d="M159,0A159,159,0,0,0,.47,146.73L48,175.56V167H270v8.37l47.38-28.56.15-.07A159,159,0,0,0,159,0ZM123.63,112.52a2.49,2.49,0,0,1-3.49-.55c-.38-.52-9.88-13-34.14-13-24.44,0-34,12.84-34.14,13a2.5,2.5,0,0,1-4-2.94C48.26,108.42,59,94,86,94s37.74,14.42,38.19,15A2.5,2.5,0,0,1,123.63,112.52Zm146,0a2.49,2.49,0,0,1-3.49-.55c-.38-.52-9.88-13-34.14-13-24.44,0-34.05,12.84-34.14,13a2.5,2.5,0,0,1-4.05-2.94c.45-.61,11.23-15,38.19-15s37.74,14.42,38.19,15A2.5,2.5,0,0,1,269.63,112.52Z"/></g></g></svg>