<svg xmlns="http://www.w3.org/2000/svg" viewBox="0 0 329.64 328"><defs><style>.cls-1{fill:#292929;}.cls-2{fill:none;stroke:#292929;stroke-linecap:round;stroke-linejoin:round;stroke-width:10px;}</style></defs><g id="Layer_2" data-name="Layer 2"><g id="Layer_1-2" data-name="Layer 1"><path class="cls-1" d="M165,10A154,154,0,0,1,273.86,272.89,154,154,0,0,1,56.07,55.11,153,153,0,0,1,165,10m0-10A164,164,0,1,0,329,164,164,164,0,0,0,165,0Z"/><path class="cls-1" d="M165,170.06,266,181v75.16L165,280.71,64,256.14V181l101-10.92M165,160,54,172v92l111,27,111-27V172L165,160Z"/><line class="cls-2" x1="274.04" y1="184.45" x2="324.64" y2="153.95"/><line class="cls-2" x1="5" y1="153.79" x2="55.91" y2="184.66"/><line class="cls-2" x1="55.95" y1="249.89" x2="26.14" y2="245.32"/><line class="cls-2" x1="303.13" y1="245.42" x2="273.65" y2="249.9"/><path class="cls-2" d="M201.8,115.5s10.17-14,36.17-14,36.16,14,36.16,14"/><path class="cls-2" d="M55.8,115.5S66,101.5,92,101.5s36.16,14,36.16,14"/></g></g></svg>