<?xml version="1.0" encoding="utf-8"?>
<!-- Generator: Adobe Illustrator 24.3.0, SVG Export Plug-In . SVG Version: 6.00 Build 0)  -->
<svg version="1.1" id="Layer_1" xmlns="http://www.w3.org/2000/svg" xmlns:xlink="http://www.w3.org/1999/xlink" x="0px" y="0px"
	 viewBox="0 0 512.3 512.2" style="enable-background:new 0 0 512.3 512.2;" xml:space="preserve">
<style type="text/css">
	.st0{fill:#A9A7A7;}
	.st1{fill:#E9E7E7;}
</style>
<g id="Layer_2_1_">
	<g id="Layer_1-2">
		<path class="st0" d="M172.6,433.9c0-26.1,7.1-44.5,20.6-60.5c12.6-14.9,24-30.7,33.3-47.9c13.5-25.2,21-51.8,18.4-80.6
			c-1.8-20.2-8.4-39-17.8-56.8c-9.5-18.1-21.6-34.4-34.6-50c-25.6-30.7-26.9-72.1-3.5-104.5c32.4-44.8,102.1-44.6,134.3,0.4
			c23.1,32.3,21.8,73-3.4,103.6c-13.9,16.9-26.8,34.4-36.7,54c-22.8,44.9-21.5,89.4,2.3,133.5c9.6,17.8,21.5,34.1,34.5,49.5
			c13.4,16,20.2,34.5,19.8,55.2c-0.5,24.5-9.9,45.2-28.6,61.5c-19.5,16.9-42.2,23.7-67.6,19.8c-19.7-2.8-37.6-12.8-50.4-28
			C179.6,467.5,172.8,449.4,172.6,433.9z"/>
		<path class="st0" d="M83.3,339.7c-48.1-0.4-83.9-39.9-83.3-85c0.5-45.7,38.6-82.9,84.5-82.4c46.2,0.7,83.1,38.7,82.4,85
			C166.2,302.9,129,339.6,83.3,339.7L83.3,339.7z"/>
		<path class="st0" d="M428.8,339.7c-46,0.1-83.4-37-83.7-83c-0.6-46.2,37-84.1,83-84.3c46.2-0.2,83.8,37,84.2,83.1
			C512.7,300.4,476.4,339.5,428.8,339.7z"/>
	</g>
</g>
<g>
	<path class="st1" d="M-764.5,281.1c0.7,1.1,1,1.7,1.4,2.2c7.7,10.5,11.6,22.5,13.4,35.2c0.4,2.6,0.5,5.2,0.7,7.9
		c0.1,1.4-0.4,2-1.8,2c-15.6,0-30.4-3-43.9-11.3c-0.7-0.4-1.3-0.8-2-1.2c-0.2-0.1-0.4-0.1-0.9-0.1c-0.2,0.7-0.4,1.4-0.5,2.1
		c-2.8,14.5-9.9,26.7-19.6,37.7c-0.8,0.9-1.7,1.8-2.5,2.7c-0.9,1-1.8,1.1-2.7,0c-2.4-2.8-4.9-5.6-7.2-8.5
		c-6.9-9.2-12-19.3-14.3-30.7c-0.1-0.5-0.3-1-0.6-1.9c-0.9,0.4-1.6,0.7-2.3,1.2c-10,6.3-20.9,9.6-32.5,11c-2.9,0.3-5.9,0.5-8.8,0.6
		c-2.8,0.1-3.2-0.3-3.1-3c0.7-15.6,4.7-30.2,13.8-43.2c0.5-0.7,0.9-1.4,1.4-2.1c-5.5-2.1-11-3.6-16-6.2c-5.2-2.6-10-5.8-14.7-9.2
		c-4.6-3.3-8.9-7.2-12.6-12c12.6-10.8,26.6-18,43.2-20.5c-0.4-0.9-0.6-1.5-0.9-2.1c-5.2-9.4-8.1-19.6-9-30.3
		c-0.3-3.9-0.4-7.9-0.4-11.8c0-2.4,0.3-2.7,2.7-2.6c7.8,0.5,15.3,2.3,22.6,4.8c5.6,2,10.8,4.5,15.8,7.8c0.5,0.3,1.1,0.6,1.8,0.9
		c0.3-1,0.6-1.7,0.9-2.5c3.7-13.1,10.7-24.3,19.9-34.2c2-2.2,2.2-2.2,4.1,0c9.6,10.4,16.8,22.1,20.4,36c0.1,0.5,0.3,1,0.5,1.5
		c0,0.1,0.2,0.2,0.5,0.6c0.7-0.4,1.5-0.8,2.3-1.3c11.3-7.1,23.8-10.7,37-11.9c0.4,0,0.8-0.1,1.2-0.1c3.8-0.4,3.9-0.4,3.8,3.6
		c-0.2,14-3,27.3-9.9,39.7c-0.2,0.4-0.4,0.8-0.6,1.2c-0.1,0.2-0.1,0.4-0.2,1.1c15.8,2.8,29.5,9.9,41.8,20.7
		C-733.8,267.8-747.4,276.9-764.5,281.1z M-809.1,271.6c-0.2,0.1-0.3,0.3-0.5,0.4c0.9,1.6,1.9,3.1,2.8,4.7c5.3,9.3,9.2,19.2,9.3,30
		c0,3.1,1.2,4.9,3.7,6.6c11.8,7.7,24.9,10.7,38.7,11.5c2.3,0.1,2.8-0.5,2.4-2.8c-0.8-4.6-1.5-9.3-2.7-13.9
		c-2.3-8.8-6-16.9-11.5-24.1c-1.2-1.6-2.5-2.5-4.7-2.2c-2.4,0.3-4.8,0.1-7.2-0.1c-10.1-0.9-19.4-4.3-28.3-9.1
		C-807.7,272.2-808.4,271.9-809.1,271.6z M-832.6,271.8c-0.7,0-0.9,0-1,0c-0.4,0.1-0.7,0.3-1.1,0.5c-10.9,5.9-22.4,9.7-35,9.3
		c-0.9,0-2.1,0.6-2.7,1.3c-1.5,1.7-2.9,3.5-4.1,5.3c-7.1,10.9-10.2,23.1-11.3,35.9c-0.2,1.7,0.3,2.2,2.2,2.1c3.7-0.3,7.4-0.7,11-1.4
		c9.9-1.7,19.1-5.1,27.4-10.8c1.5-1,2-2.2,2-4.1c-0.1-2.8,0.1-5.6,0.5-8.3c1.4-9.7,5.1-18.4,10.2-26.7
		C-833.9,274.1-833.3,273.1-832.6,271.8z M-914.6,254.4c0.9,1,1.3,1.7,1.9,2.2c1.7,1.6,3.4,3.2,5.1,4.7c9.3,7.7,19.5,13.6,31.5,16
		c2.3,0.5,4.1,0.2,5.6-1.6c0.7-0.8,1.6-1.4,2.5-2.1c8.4-6.5,18.1-10.3,28.4-12.7c0.7-0.2,1.4-0.4,2.1-0.6c0-0.2,0-0.3,0-0.5
		c-2.5-0.8-5.1-1.6-7.6-2.6c-10.4-3.8-19.6-9.2-26.7-17.8c-1.6-1.9-3.1-2.3-5.4-2c-13.3,2-24.9,7.8-35.5,15.7
		C-913.3,253.6-913.9,254-914.6,254.4z M-820.5,277.6c-0.2,0-0.4,0-0.6,0c-0.3,1.2-0.7,2.3-1,3.5c-3.1,11.6-8,22.3-16.9,30.7
		c-2,1.9-2.4,3.7-1.9,6.1c2.7,13.3,9.2,24.7,17.9,34.9c0.4,0.4,0.9,0.8,1.5,1.3c0.6-0.6,1.2-1.1,1.7-1.7c5-5.8,9.3-12,12.6-18.9
		c3-6.2,5.2-12.6,5.9-19.4c0.2-1.4-0.2-2.3-1.2-3.3c-1.5-1.5-3-3-4.3-4.6c-6.4-7.8-10.4-16.8-13.1-26.4
		C-820,279.2-820.3,278.4-820.5,277.6z M-802.3,259.8c0,0.2,0,0.4,0,0.7c1.2,0.3,2.3,0.6,3.5,0.9c10.8,2.6,20.7,6.9,28.9,14.5
		c1.8,1.6,3.4,2,5.6,1.4c14-3.3,25.5-10.9,35.6-20.8c0.3-0.3,0.5-0.7,0.9-1.3c-0.7-0.7-1.3-1.4-2.1-1.9c-3.6-2.4-7.1-4.9-10.9-7.1
		c-7.2-4.1-15-6.9-23.3-8.3c-1.9-0.3-3.4,0-4.7,1.7c-0.9,1.3-2.1,2.5-3.3,3.6c-7.7,7.6-17,12.2-27.2,15.4
		C-800.1,259-801.2,259.4-802.3,259.8z M-806.8,245.2c0.2,0.1,0.3,0.3,0.5,0.4c1.4-0.8,2.8-1.7,4.1-2.5c9.7-5.7,20-9.4,31.4-9.2
		c1.9,0,2.7-1,3.6-2.4c6.8-11.3,9.5-23.8,10.2-36.7c0.1-2.1-0.4-2.6-2.4-2.4c-12.1,1.4-23.5,4.7-33.9,11.1c-2.8,1.7-4.8,3.5-3.8,7.2
		c0,0.1,0,0.3,0,0.5c0.2,11-2.9,21.1-8,30.7C-805.6,242.9-806.2,244-806.8,245.2z M-835.9,245.2c0.1-0.1,0.2-0.2,0.3-0.3
		c-0.2-0.5-0.3-1-0.5-1.4c-1.2-2.6-2.6-5.1-3.8-7.7c-3.9-9.2-6-18.7-4.8-28.7c0.2-1.5-0.2-2.6-1.5-3.3c-3.5-2-6.9-4.2-10.5-5.9
		c-7.4-3.6-15.2-5.6-23.3-6.8c-3.2-0.5-3.6-0.2-3.4,2.8c0.3,4.7,0.6,9.4,1.4,14.1c1.4,8.3,4.1,16.2,8.4,23.5c0.9,1.5,2,2.4,3.9,2.4
		c2.1,0,4.2,0.2,6.2,0.5c9.1,1.3,17.4,4.9,25.1,9.8C-837.5,244.4-836.7,244.8-835.9,245.2z M-821,238c0.2,0,0.4,0.1,0.6,0.1
		c0.3-1.1,0.7-2.2,1-3.2c3.1-10.7,8-20.4,16.3-28.2c1.5-1.4,1.9-2.7,1.4-4.7c-2.9-12.8-9.3-23.6-17.8-33.5c-1.3-1.5-1.7-1.5-3.1,0.1
		c-4.3,5-8.1,10.4-11.2,16.2c-2.7,5.1-4.9,10.4-6.2,15.9c-0.4,1.5-0.5,2.8,0.9,4c9.4,8.3,14.5,19.1,17.5,31
		C-821.5,236.6-821.2,237.3-821,238z M-840.7,208.6c-1.8,3.5-0.3,14.1,3.2,23.4c3.4,9.1,11.5,21.7,14.5,22.9
		C-820.5,243-831.7,213.5-840.7,208.6z M-818.5,255.1c0.8-0.9,1.4-1.4,1.9-2.1c2.1-3,4.4-6,6.3-9.2c5.5-9.1,9.2-18.8,9.7-29.4
		c0.1-1.3-0.1-2.7-0.2-4.2C-809.6,214.8-821.5,244.8-818.5,255.1z M-815.2,258.1c0.1,0.1,0.3,0.2,0.4,0.2c0.5,0,0.9,0,1.4-0.1
		c6.9-0.9,13.7-2.7,20.1-5.3c7.1-2.9,13.5-6.8,19-12.2c0.8-0.8,1.5-1.8,2.4-2.8C-782.1,235.7-811.2,249.5-815.2,258.1z
		 M-868.3,237.6c4.2,8.5,32.8,22.3,41.3,20.1C-832.3,248.9-858.5,236-868.3,237.6z M-841.7,308.4c8.5-4.3,20.8-33.8,18-41.6
		c-0.4,0.3-0.8,0.5-1.1,0.9c-7.8,9.8-13.8,20.5-16.1,33C-841.4,303.2-841.5,305.8-841.7,308.4z M-773.5,277.9
		c-5.5-7.5-34.6-17.8-41-14.6C-807.5,271-780.8,280.6-773.5,277.9z M-817.7,267.1c-0.3,0.1-0.5,0.1-0.8,0.2c0.1,0.9,0.1,1.8,0.2,2.7
		c1.2,7,3,13.7,5.9,20.2c2.4,5.3,5.3,10.3,9.1,14.7c0.5,0.6,1.2,1,1.7,1.5c0.2-0.1,0.4-0.3,0.6-0.4
		C-802.1,291.1-808.7,278.6-817.7,267.1z M-866.4,277.6c6.9,2.3,34-7.8,38.4-14.3C-835.4,261.2-862.8,271.4-866.4,277.6z"/>
</g>
<circle class="st1" cx="-627.2" cy="248.3" r="17.4"/>
<circle class="st1" cx="-521.9" cy="248.3" r="10.2"/>
<circle class="st1" cx="-1014.7" cy="248.3" r="17.4"/>
<circle class="st1" cx="-1120" cy="248.3" r="10.2"/>
<circle class="st1" cx="-1076.4" cy="528.1" r="51.5"/>
<path class="st1" d="M-372.7,579.6h-461.7c-28.5,0-51.5-23.1-51.5-51.5v0c0-28.5,23.1-51.5,51.5-51.5h461.7
	c28.5,0,51.5,23.1,51.5,51.5v0C-321.2,556.6-344.3,579.6-372.7,579.6z"/>
<circle class="st1" cx="-1076.4" cy="755.3" r="51.5"/>
<path class="st1" d="M-372.7,806.8h-461.7c-28.5,0-51.5-23.1-51.5-51.5v0c0-28.5,23.1-51.5,51.5-51.5h461.7
	c28.5,0,51.5,23.1,51.5,51.5v0C-321.2,783.7-344.3,806.8-372.7,806.8z"/>
<circle class="st1" cx="-1076.4" cy="982.4" r="51.5"/>
<path class="st1" d="M-372.7,1034h-461.7c-28.5,0-51.5-23.1-51.5-51.5v0c0-28.5,23.1-51.5,51.5-51.5h461.7
	c28.5,0,51.5,23.1,51.5,51.5v0C-321.2,1010.9-344.3,1034-372.7,1034z"/>
<rect x="-1168.7" y="1671.6" class="st1" width="153.9" height="153.9"/>
<rect x="-818.2" y="1671.6" class="st1" width="768.5" height="153.9"/>
<rect x="-1168.7" y="1996" class="st1" width="153.9" height="153.9"/>
<rect x="-818.2" y="1996" class="st1" width="768.5" height="153.9"/>
<rect x="-1168.7" y="2320.4" class="st1" width="153.9" height="153.9"/>
<rect x="-2087.3" y="1671.6" class="st1" width="153.9" height="153.9"/>
<rect x="-2087.3" y="1996" class="st1" width="153.9" height="153.9"/>
<rect x="-2087.3" y="2320.4" class="st1" width="153.9" height="153.9"/>
<rect x="-2420" y="1671.6" class="st1" width="153.9" height="153.9"/>
<rect x="-2420" y="1996" class="st1" width="153.9" height="153.9"/>
<rect x="-2420" y="2320.4" class="st1" width="153.9" height="153.9"/>
<rect x="-2752.7" y="1671.6" class="st1" width="153.9" height="153.9"/>
<rect x="-2752.7" y="1996" class="st1" width="153.9" height="153.9"/>
<rect x="-2752.7" y="2320.4" class="st1" width="153.9" height="153.9"/>
<rect x="-818.2" y="2320.4" class="st1" width="768.5" height="153.9"/>
</svg>
