<?xml version="1.0" encoding="utf-8"?>
<!-- Generator: Adobe Illustrator 24.3.0, SVG Export Plug-In . SVG Version: 6.00 Build 0)  -->
<svg version="1.1" id="Layer_1" xmlns="http://www.w3.org/2000/svg" xmlns:xlink="http://www.w3.org/1999/xlink" x="0px" y="0px"
	 viewBox="0 0 512.3 512.2" style="enable-background:new 0 0 512.3 512.2;" xml:space="preserve">
<style type="text/css">
	.st0{fill:#A9A7A7;}
</style>
<g id="Layer_2_1_">
	<g id="Layer_1-2">
		<path class="st0" d="M172.6,433.9c0-26.1,7.1-44.5,20.6-60.5c12.6-14.9,24-30.7,33.3-47.9c13.5-25.2,21-51.8,18.4-80.6
			c-1.8-20.2-8.4-39-17.8-56.8c-9.5-18.1-21.6-34.4-34.6-50C166.9,107.4,165.6,66,189,33.6C221.4-11.2,291.1-11,323.3,34
			c23.1,32.3,21.8,73-3.4,103.6c-13.9,16.9-26.8,34.4-36.7,54c-22.8,44.9-21.5,89.4,2.3,133.5c9.6,17.8,21.5,34.1,34.5,49.5
			c13.4,16,20.2,34.5,19.8,55.2c-0.5,24.5-9.9,45.2-28.6,61.5c-19.5,16.9-42.2,23.7-67.6,19.8c-19.7-2.8-37.6-12.8-50.4-28
			C179.6,467.5,172.8,449.4,172.6,433.9z"/>
		<path class="st0" d="M83.3,339.7c-48.1-0.4-83.9-39.9-83.3-85c0.5-45.7,38.6-82.9,84.5-82.4c46.2,0.7,83.1,38.7,82.4,85
			C166.2,302.9,129,339.6,83.3,339.7L83.3,339.7z"/>
		<path class="st0" d="M428.8,339.7c-46,0.1-83.4-37-83.7-83c-0.6-46.2,37-84.1,83-84.3c46.2-0.2,83.8,37,84.2,83.1
			C512.7,300.4,476.4,339.5,428.8,339.7z"/>
	</g>
</g>
</svg>
