<svg xmlns="http://www.w3.org/2000/svg" viewBox="0 0 618.61 196.92"><defs><style>.cls-1{fill:#e9e7e7;}</style></defs><g id="Layer_2" data-name="Layer 2"><g id="Layer_1-2" data-name="Layer 1"><path class="cls-1" d="M365.78,118.92c.67,1.07,1,1.67,1.4,2.22,7.65,10.53,11.59,22.49,13.45,35.22.38,2.6.45,5.24.71,7.85.14,1.39-.4,2-1.81,2-15.63,0-30.45-3-43.91-11.33-.66-.41-1.32-.81-2-1.18a3.33,3.33,0,0,0-.93-.1c-.18.71-.41,1.42-.55,2.15-2.83,14.46-9.92,26.72-19.55,37.66-.82.93-1.7,1.81-2.52,2.73s-1.81,1.06-2.71,0c-2.4-2.83-4.94-5.56-7.16-8.53-6.87-9.23-12-19.32-14.26-30.7-.11-.52-.31-1-.56-1.87-.86.43-1.6.74-2.28,1.16-10,6.26-20.91,9.57-32.5,11-2.91.35-5.86.48-8.79.57-2.77.08-3.18-.31-3.06-3.05.69-15.63,4.71-30.21,13.79-43.17.48-.69.92-1.4,1.39-2.11-5.49-2.06-11-3.64-16.05-6.15a111.88,111.88,0,0,1-14.73-9.2,57.55,57.55,0,0,1-12.58-12c12.57-10.77,26.56-18,43.17-20.51-.37-.89-.57-1.52-.88-2.09a74.29,74.29,0,0,1-9-30.26c-.34-3.93-.39-7.88-.44-11.82,0-2.39.33-2.75,2.73-2.59a84.7,84.7,0,0,1,22.62,4.85,72.29,72.29,0,0,1,15.8,7.78c.5.32,1.06.55,1.82.93.34-1,.65-1.72.87-2.51C291,22.76,298,11.56,307.16,1.63c2-2.17,2.17-2.17,4.15,0,9.56,10.43,16.84,22.15,20.38,36,.14.53.3,1,.48,1.55.05.13.19.23.5.57.74-.41,1.53-.81,2.29-1.28,11.34-7.06,23.77-10.7,37-11.86.39,0,.78,0,1.16-.09,3.85-.4,3.9-.4,3.84,3.56-.2,14-3,27.34-9.91,39.67a13,13,0,0,0-.62,1.24,6.86,6.86,0,0,0-.16,1.07C382.08,74.82,395.77,82,408,92.76,396.41,105.64,382.81,114.71,365.78,118.92Zm-44.61-9.54-.46.45c.93,1.58,1.87,3.14,2.78,4.73,5.3,9.33,9.16,19.16,9.28,30a7.12,7.12,0,0,0,3.67,6.56c11.77,7.68,24.9,10.69,38.68,11.51,2.28.14,2.79-.46,2.39-2.78-.81-4.64-1.51-9.32-2.68-13.88a66.51,66.51,0,0,0-11.53-24.12c-1.23-1.6-2.48-2.48-4.66-2.25a38.29,38.29,0,0,1-7.18-.08c-10.12-.87-19.42-4.31-28.27-9.15C322.53,110.05,321.85,109.72,321.17,109.38Zm-23.51.28a5.22,5.22,0,0,0-1,0,8.33,8.33,0,0,0-1.05.49c-10.92,5.9-22.39,9.72-35,9.27a4.1,4.1,0,0,0-2.74,1.34,41.67,41.67,0,0,0-4.07,5.35C246.68,137,243.56,149.23,242.4,162c-.15,1.71.33,2.24,2.21,2.07,3.69-.33,7.39-.71,11-1.35a68.94,68.94,0,0,0,27.41-10.83,4.24,4.24,0,0,0,2-4.07,51.49,51.49,0,0,1,.49-8.32c1.36-9.65,5.13-18.42,10.19-26.68C296.33,111.89,296.91,110.91,297.66,109.66Zm-82-17.42c.88,1.05,1.32,1.67,1.86,2.18,1.69,1.59,3.37,3.2,5.15,4.68,9.29,7.73,19.52,13.6,31.52,16,2.26.45,4.08.18,5.65-1.6a18.52,18.52,0,0,1,2.48-2.09c8.42-6.53,18.08-10.32,28.37-12.68.7-.16,1.39-.38,2.09-.58v-.5c-2.54-.85-5.1-1.64-7.61-2.55-10.35-3.76-19.61-9.21-26.71-17.79a5.2,5.2,0,0,0-5.42-2c-13.29,2-24.85,7.76-35.49,15.68C217,91.43,216.35,91.77,215.63,92.24Zm94.11,23.17-.6,0c-.33,1.17-.66,2.34-1,3.51-3.14,11.61-8,22.31-16.91,30.68a5.86,5.86,0,0,0-1.88,6.14c2.69,13.33,9.18,24.69,17.89,34.92a11.93,11.93,0,0,0,1.52,1.27c.64-.61,1.23-1.09,1.72-1.65a85.83,85.83,0,0,0,12.6-18.85,59,59,0,0,0,5.95-19.42,3.64,3.64,0,0,0-1.21-3.29,59.37,59.37,0,0,1-4.28-4.56c-6.41-7.79-10.4-16.79-13.08-26.42C310.26,117,310,116.2,309.74,115.41ZM328,97.57v.66c1.17.3,2.33.63,3.5.91,10.77,2.6,20.73,6.86,28.93,14.5a5.51,5.51,0,0,0,5.64,1.44c14-3.32,25.48-10.91,35.64-20.78a8.23,8.23,0,0,0,.88-1.3,19.48,19.48,0,0,0-2.05-1.86c-3.61-2.39-7.15-4.91-10.9-7.06a69.48,69.48,0,0,0-23.27-8.3c-1.95-.32-3.43,0-4.65,1.67a29.45,29.45,0,0,1-3.28,3.61c-7.69,7.56-17,12.24-27.19,15.43C330.12,96.83,329,97.21,328,97.57ZM323.49,83l.51.39c1.38-.82,2.75-1.66,4.14-2.47,9.72-5.68,20-9.41,31.45-9.17,1.9,0,2.75-1,3.57-2.43,6.78-11.31,9.49-23.75,10.23-36.74.12-2.07-.43-2.58-2.42-2.35-12.05,1.39-23.47,4.69-33.91,11.08-2.82,1.73-4.85,3.54-3.81,7.16a1.75,1.75,0,0,1,0,.46c.16,11-2.94,21.06-8,30.65C324.66,80.7,324.08,81.84,323.49,83Zm-29.17,0,.31-.34a11.58,11.58,0,0,0-.48-1.44c-1.25-2.57-2.64-5.08-3.76-7.71-3.92-9.18-6.05-18.68-4.77-28.72a3,3,0,0,0-1.52-3.33c-3.48-2-6.87-4.2-10.48-5.94a79.54,79.54,0,0,0-23.32-6.78c-3.2-.47-3.6-.23-3.39,2.77.32,4.7.65,9.42,1.42,14.06A66.67,66.67,0,0,0,256.78,69a4.26,4.26,0,0,0,3.87,2.42,52,52,0,0,1,6.24.52C276,73.3,284.26,76.91,292,81.74,292.77,82.2,293.55,82.6,294.32,83Zm14.9-7.19.57.07c.35-1.07.72-2.15,1-3.23,3.12-10.73,8-20.44,16.3-28.16a4.27,4.27,0,0,0,1.4-4.68c-2.93-12.76-9.33-23.65-17.76-33.47-1.3-1.52-1.71-1.5-3.11.11a87.06,87.06,0,0,0-11.18,16.19,67.47,67.47,0,0,0-6.22,16c-.36,1.47-.47,2.76.9,4,9.37,8.33,14.47,19.11,17.47,31C308.8,74.37,309,75.1,309.22,75.83ZM289.54,46.45c-1.79,3.48-.34,14.07,3.19,23.37,3.45,9.08,11.45,21.71,14.49,22.89C309.8,80.77,298.54,51.33,289.54,46.45Zm22.17,46.46a26.89,26.89,0,0,0,1.89-2.12c2.15-3,4.4-6,6.33-9.17,5.5-9.05,9.16-18.75,9.74-29.44A40.82,40.82,0,0,0,329.5,48C320.67,52.59,308.77,82.64,311.71,92.91Zm3.34,3c.13.08.26.22.39.21a10.4,10.4,0,0,0,1.37-.1,82.4,82.4,0,0,0,20.13-5.33,57.75,57.75,0,0,0,19-12.19c.81-.81,1.49-1.76,2.38-2.82C348.18,73.49,319,87.36,315.05,95.88ZM262,75.43c4.17,8.45,32.79,22.28,41.33,20.09C298,86.68,271.77,73.85,262,75.43Zm26.53,70.73c8.46-4.34,20.76-33.77,18-41.59a6.69,6.69,0,0,0-1.05.88c-7.81,9.8-13.83,20.49-16.13,33C288.84,141,288.77,143.58,288.52,146.16Zm68.24-30.5c-5.54-7.47-34.62-17.76-41-14.61C322.72,108.8,349.42,118.41,356.76,115.66ZM312.54,104.9l-.77.21a26.43,26.43,0,0,0,.21,2.67A84.12,84.12,0,0,0,317.87,128,57.86,57.86,0,0,0,327,142.69a16.7,16.7,0,0,0,1.73,1.51l.57-.43C328.15,128.9,321.58,116.37,312.54,104.9Zm-48.7,10.5c6.9,2.31,34-7.77,38.35-14.27C294.86,99,267.47,109.2,263.84,115.4Z"/><circle class="cls-1" cx="503.1" cy="86.08" r="17.38"/><circle class="cls-1" cx="608.38" cy="86.08" r="10.22"/><circle class="cls-1" cx="115.51" cy="86.08" r="17.38"/><circle class="cls-1" cx="10.22" cy="86.08" r="10.22"/></g></g></svg>