<svg xmlns="http://www.w3.org/2000/svg" viewBox="0 0 425.04 423.84"><defs><style>.cls-1{fill:#e9e7e7;}</style></defs><g id="Layer_2" data-name="Layer 2"><g id="Layer_1-2" data-name="Layer 1"><path class="cls-1" d="M334.07,256c1.45,2.29,2.16,3.59,3,4.78,16.47,22.66,24.95,48.39,28.94,75.79.81,5.59,1,11.28,1.53,16.91.29,3-.85,4.28-3.91,4.28-33.62.07-65.52-6.5-94.51-24.39-1.41-.88-2.83-1.75-4.29-2.54a7,7,0,0,0-2-.22c-.4,1.54-.88,3.06-1.18,4.62-6.11,31.14-21.36,57.53-42.09,81.07-1.76,2-3.65,3.89-5.42,5.88-2,2.23-3.9,2.28-5.84,0-5.15-6.11-10.64-12-15.4-18.37-14.79-19.87-25.79-41.58-30.7-66.08-.23-1.11-.65-2.19-1.21-4-1.84.93-3.45,1.58-4.89,2.49-21.43,13.49-45,20.61-70,23.61-6.27.75-12.61,1-18.93,1.21-5.95.18-6.83-.66-6.57-6.55,1.49-33.65,10.13-65,29.68-92.93,1-1.48,2-3,3-4.54-11.8-4.43-23.67-7.83-34.54-13.24-11.11-5.53-21.56-12.58-31.71-19.79A124.51,124.51,0,0,1,0,198.15C27.07,175,57.18,159.34,92.93,154c-.8-1.92-1.22-3.29-1.9-4.51C79.77,129.22,73.65,107.38,71.7,84.37c-.72-8.45-.83-17-.94-25.44-.08-5.15.7-5.91,5.87-5.57a182.17,182.17,0,0,1,48.7,10.43,156.32,156.32,0,0,1,34,16.74,42.28,42.28,0,0,0,3.94,2c.71-2,1.38-3.7,1.86-5.4,8-28.17,23.09-52.27,42.79-73.65,4.3-4.66,4.67-4.66,8.92,0,20.59,22.44,36.26,47.67,43.88,77.47.29,1.12.64,2.23,1,3.33.1.28.42.49,1.07,1.22,1.59-.89,3.31-1.74,4.92-2.75,24.41-15.21,51.18-23,79.66-25.53.83-.07,1.66-.12,2.49-.2,8.27-.85,8.38-.85,8.26,7.67-.42,30.12-6.5,58.84-21.32,85.37a24.73,24.73,0,0,0-1.33,2.68,12.26,12.26,0,0,0-.35,2.31c34,6,63.5,21.39,89.9,44.62C400,227.38,370.74,246.89,334.07,256Zm-96-20.54-1,1c2,3.39,4,6.75,6,10.18,11.42,20.08,19.72,41.23,20,64.64.08,6.74,2.54,10.63,7.89,14.12,25.33,16.53,53.59,23,83.26,24.79,4.9.29,6-1,5.13-6-1.73-10-3.24-20.07-5.77-29.87a142.88,142.88,0,0,0-24.82-51.94c-2.64-3.44-5.32-5.33-10-4.83a81.42,81.42,0,0,1-15.45-.18c-21.79-1.86-41.81-9.28-60.85-19.69C241,236.86,239.52,236.17,238.07,235.43Zm-50.61.6a11.65,11.65,0,0,0-2.24,0A20.24,20.24,0,0,0,183,237.1c-23.51,12.71-48.18,20.93-75.36,20-2-.07-4.51,1.34-5.9,2.88A90.86,90.86,0,0,0,93,271.45C77.73,295,71,321.21,68.52,348.75c-.33,3.68.7,4.81,4.76,4.45,7.94-.7,15.91-1.52,23.76-2.91,21.22-3.75,41.09-11,59-23.3,3.27-2.24,4.38-4.8,4.3-8.76a110.52,110.52,0,0,1,1-17.9c2.94-20.78,11.05-39.66,22-57.44C184.61,240.82,185.84,238.73,187.46,236ZM10.89,198.53c1.92,2.26,2.85,3.6,4,4.69,3.64,3.42,7.24,6.9,11.08,10.09,20,16.63,42,29.26,67.85,34.47,4.87,1,8.77.39,12.16-3.44a37.33,37.33,0,0,1,5.34-4.49c18.12-14.07,38.9-22.23,61-27.3,1.52-.35,3-.83,4.51-1.24,0-.37,0-.73,0-1.09-5.46-1.83-11-3.53-16.36-5.49-22.28-8.08-42.21-19.83-57.51-38.29-3.37-4.06-6.72-5-11.65-4.28-28.61,4.21-53.49,16.7-76.4,33.75C13.77,196.8,12.46,197.53,10.89,198.53Zm202.58,49.88-1.31.09c-.7,2.52-1.41,5-2.09,7.57-6.76,25-17.21,48-36.41,66-4.31,4-5.1,7.92-4,13.21,5.77,28.69,19.74,53.15,38.49,75.17a27.11,27.11,0,0,0,3.27,2.74c1.38-1.31,2.65-2.34,3.71-3.56a185.28,185.28,0,0,0,27.12-40.58c6.44-13.26,11.19-27,12.8-41.8a7.81,7.81,0,0,0-2.6-7.08,123.81,123.81,0,0,1-9.22-9.81c-13.8-16.76-22.37-36.13-28.14-56.87C214.58,251.8,214,250.11,213.47,248.41ZM252.68,210v1.42c2.51.66,5,1.35,7.53,2,23.17,5.6,44.61,14.76,62.27,31.21,3.8,3.54,7.33,4.24,12.13,3.1,30.13-7.14,54.85-23.48,76.72-44.73a18.7,18.7,0,0,0,1.9-2.78,38.69,38.69,0,0,0-4.42-4c-7.76-5.17-15.39-10.58-23.46-15.2a149.16,149.16,0,0,0-50.09-17.87c-4.19-.69-7.39,0-10,3.6a62.92,62.92,0,0,1-7,7.76c-16.55,16.27-36.63,26.34-58.53,33.21C257.32,208.41,255,209.22,252.68,210Zm-9.62-31.4,1.09.85c3-1.78,5.93-3.59,8.92-5.33,20.91-12.22,43.08-20.25,67.68-19.74,4.1.09,5.91-2.25,7.69-5.21,14.6-24.35,20.43-51.13,22-79.08.25-4.47-.94-5.57-5.21-5.07-25.94,3-50.52,10.09-73,23.86-6.05,3.71-10.42,7.6-8.18,15.39a4.16,4.16,0,0,1,0,1c.34,23.58-6.32,45.33-17.22,66C245.58,173.69,244.33,176.15,243.06,178.6Zm-62.8.1.67-.74a24.84,24.84,0,0,0-1-3.09c-2.69-5.55-5.69-11-8.11-16.61-8.44-19.75-13-40.2-10.26-61.82.41-3.2-.49-5.58-3.26-7.17-7.49-4.31-14.8-9-22.57-12.77-15.87-7.66-32.78-12.06-50.18-14.61-6.89-1-7.75-.47-7.31,6,.7,10.12,1.4,20.28,3.07,30.27a143.2,143.2,0,0,0,18.18,50.48c2,3.32,4.37,5.1,8.34,5.19a113.66,113.66,0,0,1,13.42,1.12c19.63,2.85,37.38,10.61,54.1,21C176.93,176.92,178.62,177.78,180.26,178.7Zm32.07-15.49,1.24.16c.74-2.32,1.54-4.62,2.22-7,6.71-23.09,17.26-44,35.08-60.59,3.27-3,4-5.87,3-10.09-6.3-27.46-20.08-50.9-38.23-72-2.79-3.26-3.67-3.21-6.68.24a187.54,187.54,0,0,0-24.08,34.84,145.52,145.52,0,0,0-13.37,34.33c-.78,3.18-1,6,1.92,8.57,20.18,17.94,31.15,41.13,37.61,66.83C211.44,160.07,211.9,161.64,212.33,163.21ZM170,100c-3.85,7.47-.73,30.28,6.88,50.3C184.28,169.82,201.5,197,208,199.54,213.59,173.85,189.36,110.47,170,100ZM217.7,200a57.91,57.91,0,0,0,4.08-4.57c4.61-6.52,9.47-12.91,13.61-19.72,11.84-19.49,19.72-40.37,21-63.38.15-2.84-.23-5.72-.38-9C237,113.2,211.38,177.88,217.7,200Zm7.18,6.39c.28.17.57.47.84.46a26.8,26.8,0,0,0,3-.23A177.38,177.38,0,0,0,272,195.13c15.24-6.23,29.15-14.61,40.95-26.23,1.76-1.74,3.21-3.78,5.14-6.07C296.19,158.18,233.43,188,224.88,206.37Zm-114.18-44c9,18.19,70.55,48,88.93,43.24C188.18,186.57,131.74,159,110.7,162.35ZM167.78,314.6c18.22-9.35,44.69-72.69,38.69-89.52A14.58,14.58,0,0,0,204.2,227c-16.81,21.09-29.77,44.11-34.71,71C168.48,303.42,168.33,309,167.78,314.6ZM314.66,249c-11.93-16.09-74.5-38.24-88.16-31.45C241.4,234.18,298.88,254.86,314.66,249Zm-95.18-23.18-1.65.46a57.62,57.62,0,0,0,.45,5.75c2.58,15,6.45,29.56,12.69,43.46,5.13,11.45,11.34,22.22,19.66,31.68a36.43,36.43,0,0,0,3.73,3.26l1.21-.93C253.09,277.45,238.94,250.47,219.48,225.77ZM114.66,248.39c14.85,5,73.19-16.74,82.54-30.72C181.42,213.11,122.48,235.05,114.66,248.39Z"/></g></g></svg>