<svg xmlns="http://www.w3.org/2000/svg" viewBox="0 0 88.59 88.36"><defs><style>.cls-1{fill:#999;}</style></defs><g id="Layer_2" data-name="Layer 2"><g id="Layer_1-2" data-name="Layer 1"><path class="cls-1" d="M73.9,88.32a24.45,24.45,0,0,0,2.84,0c4.9-.61,8.71-2.84,10.62-7.58a17.76,17.76,0,0,0,1.09-8.85,4.41,4.41,0,0,0-2.78-3.78c-6.39-2.93-12.79-5.86-19.14-8.87a4.57,4.57,0,0,0-5.28.6c-2.17,1.72-4.39,3.38-6.6,5-2.41,1.82-3.87,1.92-6.22.17A120.75,120.75,0,0,1,23.35,40c-1.67-2.26-1.6-3.75.1-6s3.44-4.54,5.18-6.79a4.32,4.32,0,0,0,.72-4.85C26.28,15.7,23.25,9.09,20.2,2.49A3.78,3.78,0,0,0,16.72,0a42.75,42.75,0,0,0-5.19.08C4.78.86.45,5.64.05,12.45c-.41,7,1.68,13.42,4.56,19.64a101.51,101.51,0,0,0,18,26.09C32.31,68.73,43.3,77.69,56.39,83.84,61.92,86.44,67.67,88.4,73.9,88.32Z"/></g></g></svg>