<svg xmlns="http://www.w3.org/2000/svg" viewBox="0 0 1973.43 849.47"><defs><style>.cls-1{fill:#e9e7e7;}.cls-2{fill:none;stroke:#e9e7e7;stroke-linecap:round;stroke-linejoin:round;stroke-width:4px;}</style></defs><g id="Layer_2" data-name="Layer 2"><g id="Layer_1-2" data-name="Layer 1"><path class="cls-1" d="M1676,470.16a45.43,45.43,0,1,1,45.34-45.72A45.35,45.35,0,0,1,1676,470.16Z"/><path class="cls-1" d="M1954.53,443.67a18.94,18.94,0,1,1,18.9-19.06A18.91,18.91,0,0,1,1954.53,443.67Z"/><path class="cls-1" d="M297.58,470.16a45.43,45.43,0,1,1,45.35-45.72A45.35,45.35,0,0,1,297.58,470.16Z"/><path class="cls-1" d="M19,443.67a18.94,18.94,0,1,1,18.89-19.06A18.91,18.91,0,0,1,19,443.67Z"/><g id="Layer_2-2" data-name="Layer 2"><g id="Layer_1-2-2" data-name="Layer 1-2"><rect class="cls-2" x="739.07" y="179.42" width="504.88" height="504.88" transform="translate(-14.97 827.59) rotate(-45)"/><circle class="cls-1" cx="992.74" cy="74.21" r="74.21"/><circle class="cls-1" cx="1342.02" cy="433.15" r="74.21"/><circle class="cls-1" cx="992.74" cy="775.26" r="74.21"/><circle class="cls-1" cx="631.41" cy="433.15" r="74.21"/></g></g></g></g></svg>