<svg xmlns="http://www.w3.org/2000/svg" viewBox="0 0 158.52 105"><defs><style>.cls-1{fill:#999;}</style></defs><g id="Layer_2" data-name="Layer 2"><g id="Layer_1-2" data-name="Layer 1"><path class="cls-1" d="M98.88,60.12a30.57,30.57,0,0,1-39.25,0L.93,9.07a14,14,0,0,0-.93,5V90.9A14.1,14.1,0,0,0,14.1,105H144.41a14.1,14.1,0,0,0,14.11-14.1V14.1a14,14,0,0,0-.93-5Z"/><path class="cls-1" d="M91,52.81,150.29,1.28A14.08,14.08,0,0,0,144.41,0H14.1A14.07,14.07,0,0,0,8.23,1.28L67.49,52.81A18.23,18.23,0,0,0,91,52.81Z"/></g></g></svg>