<svg xmlns="http://www.w3.org/2000/svg" viewBox="0 0 179 125">
    <defs>
        <style>
            .cls-1 {
                fill: #b9b9b9;
            }
        </style>
    </defs>
    <g id="Layer_2" data-name="Layer 2">
        <g id="Layer_1-2" data-name="Layer 1">
            <path class="cls-1"
                d="M159.41,0H19.59A19.59,19.59,0,0,0,0,19.59v85.82A19.59,19.59,0,0,0,19.59,125H159.41A19.59,19.59,0,0,0,179,105.41V19.59A19.59,19.59,0,0,0,159.41,0ZM23.32,9.18H155.68a14.27,14.27,0,0,1,6,1.3L101.45,62.82a18.52,18.52,0,0,1-23.9,0L17.36,10.48A14.27,14.27,0,0,1,23.32,9.18ZM170,101.5a14.32,14.32,0,0,1-14.32,14.32H23.32A14.32,14.32,0,0,1,9,101.5v-78a14.44,14.44,0,0,1,.94-5.11L69.57,70.24a31.05,31.05,0,0,0,39.86,0l59.63-51.85A14.44,14.44,0,0,1,170,23.5Z" />
        </g>
    </g>
</svg>