<svg xmlns="http://www.w3.org/2000/svg" viewBox="0 0 105.18 150.16"><defs><style>.cls-1{fill:#999;}</style></defs><g id="Layer_2" data-name="Layer 2"><g id="Layer_1-2" data-name="Layer 1"><path class="cls-1" d="M52.57,150.16c-1.18-1.36-2.3-2.58-3.34-3.88-4.7-5.87-9.48-11.69-14-17.67a270.85,270.85,0,0,1-15.81-23.3A179.7,179.7,0,0,1,6.64,80.7,90.42,90.42,0,0,1,.93,62,51.16,51.16,0,0,1,.19,48.23,52.31,52.31,0,0,1,13.43,17.52,52.45,52.45,0,0,1,57.3.21,51.75,51.75,0,0,1,79.08,7.13a52.34,52.34,0,0,1,25.07,55.6,93.2,93.2,0,0,1-5.4,17.52,168.71,168.71,0,0,1-9.63,19.49,228.62,228.62,0,0,1-12.75,20.05C71.7,126.27,66.86,132.63,62,139c-2.73,3.53-5.69,6.87-8.55,10.29C53.2,149.52,52.93,149.77,52.57,150.16ZM71.25,52.57A18.65,18.65,0,1,0,53,71.22,18.58,18.58,0,0,0,71.25,52.57Z"/></g></g></svg>