<svg xmlns="http://www.w3.org/2000/svg" viewBox="0 0 112.03 55.36"><defs><style>.cls-1{fill:#696969;}</style></defs><g id="Layer_2" data-name="Layer 2"><g id="Layer_1-2" data-name="Layer 1"><path class="cls-1" d="M0,27.63c1.49-1.4,2.93-2.76,4.38-4.1a97.48,97.48,0,0,1,8.7-7.28c2.68-1.95,5.42-3.81,8.19-5.61A68.89,68.89,0,0,1,31.84,5.13a66.69,66.69,0,0,1,8.39-2.94A62.46,62.46,0,0,1,49,.43,56.8,56.8,0,0,1,59.43.11a53.39,53.39,0,0,1,8.18,1.07c2,.44,4.06.93,6,1.54A73,73,0,0,1,87.94,8.93,96.18,96.18,0,0,1,98.71,16a117.65,117.65,0,0,1,9.23,7.76c1.07,1,2.13,2,3.19,3,.29.26.56.54.9.87-.55.55-1.06,1.09-1.61,1.59-2.06,1.88-4.11,3.78-6.22,5.62A103.46,103.46,0,0,1,95,42a85.33,85.33,0,0,1-12.68,7.29,68.26,68.26,0,0,1-10.56,3.91,61.93,61.93,0,0,1-11,2,52.84,52.84,0,0,1-8.25.08,61.42,61.42,0,0,1-8.11-1.06A66.94,66.94,0,0,1,29.75,49.3a83.93,83.93,0,0,1-12.19-7A109.56,109.56,0,0,1,6.33,33.57c-2-1.82-4-3.72-6-5.58A3.31,3.31,0,0,1,0,27.63ZM56,10.79a16.88,16.88,0,1,0,16.85,17A16.87,16.87,0,0,0,56,10.79ZM72.47,10a23.89,23.89,0,0,1,7.66,17.75A23.88,23.88,0,0,1,72.45,45.4c11-3.66,20.39-10.06,29-17.73C92.81,20,83.49,13.59,72.47,10Zm-32.8,35.5a24.28,24.28,0,0,1,0-35.58C28.53,13.61,19.19,20,10.53,27.67,19.21,35.33,28.53,41.74,39.67,45.46Z"/></g></g></svg>