<svg xmlns="http://www.w3.org/2000/svg" viewBox="0 0 112.03 55.4"><defs><style>.cls-1{fill:#b9b9b9;}</style></defs><g id="Layer_2" data-name="Layer 2"><g id="Layer_1-2" data-name="Layer 1"><g id="Layer_2-2" data-name="Layer 2"><g id="Layer_1-2-2" data-name="Layer 1-2"><path class="cls-1" d="M0,27.63c1.49-1.4,2.93-2.76,4.38-4.1a95.81,95.81,0,0,1,8.7-7.28c2.68-1.95,5.42-3.81,8.19-5.61A68,68,0,0,1,31.84,5.13a65.67,65.67,0,0,1,8.39-2.94A61.07,61.07,0,0,1,49,.43,55.94,55.94,0,0,1,59.43.11a52.33,52.33,0,0,1,8.18,1.07c2,.44,4.06.93,6,1.54A72.8,72.8,0,0,1,87.94,8.93,95.54,95.54,0,0,1,98.71,16a113.77,113.77,0,0,1,9.23,7.76l3.19,3c.29.26.56.54.9.87-.55.55-1.06,1.09-1.61,1.59-2.06,1.88-4.11,3.78-6.22,5.62A106.36,106.36,0,0,1,95,42a85.71,85.71,0,0,1-12.68,7.29A68.64,68.64,0,0,1,71.76,53.2a63.16,63.16,0,0,1-11,2,52.84,52.84,0,0,1-8.25.08,63.37,63.37,0,0,1-8.11-1.06A67,67,0,0,1,29.75,49.3a84.17,84.17,0,0,1-12.19-7A110.28,110.28,0,0,1,6.33,33.57c-2-1.82-4-3.72-6-5.58A3.7,3.7,0,0,1,0,27.63ZM56,10.79a16.8,16.8,0,1,0,.11,0ZM72.47,10a23.89,23.89,0,0,1,7.66,17.75A23.9,23.9,0,0,1,72.45,45.4c11-3.66,20.39-10.06,29-17.73C92.81,20,83.49,13.59,72.47,10ZM39.67,45.5A24.29,24.29,0,0,1,38.4,11.18c.41-.43.83-.86,1.27-1.26C28.53,13.61,19.19,20,10.53,27.67c8.68,7.66,18,14.07,29.14,17.79Z"/></g></g></g></g></svg>