<svg xmlns="http://www.w3.org/2000/svg" viewBox="0 0 1354.53 512.05"><defs><style>.cls-1{fill:#e9e7e7;}</style></defs><g id="Layer_2" data-name="Layer 2"><g id="Layer_1-2" data-name="Layer 1"><g id="Layer_2-2" data-name="Layer 2"><g id="Layer_1-2-2" data-name="Layer 1-2"><path class="cls-1" d="M593.72,433.78c0-26.1,7.1-44.5,20.6-60.5a282.78,282.78,0,0,0,33.3-47.9c13.5-25.2,21-51.8,18.4-80.6-1.8-20.2-8.4-39-17.8-56.8-9.5-18.1-21.6-34.4-34.6-50-25.6-30.7-26.9-72.1-3.5-104.5,32.4-44.8,102.1-44.6,134.3.4,23.1,32.3,21.8,73-3.4,103.6-13.9,16.9-26.8,34.4-36.7,54-22.8,44.9-21.5,89.4,2.3,133.5,9.6,17.8,21.5,34.1,34.5,49.5,13.4,16,20.2,34.5,19.8,55.2-.5,24.5-9.9,45.2-28.6,61.5-19.5,16.9-42.2,23.7-67.6,19.8a80.74,80.74,0,0,1-50.4-28C600.72,467.38,593.92,449.28,593.72,433.78Z"/><path class="cls-1" d="M504.42,339.58c-48.1-.4-83.9-39.9-83.3-85,.5-45.7,38.6-82.9,84.5-82.4a83.71,83.71,0,0,1-1.2,167.4Z"/><path class="cls-1" d="M849.92,339.58a83.52,83.52,0,0,1-83.7-83c-.6-46.2,37-84.1,83-84.3a83.65,83.65,0,1,1,.7,167.3Z"/></g></g><path class="cls-1" d="M1125.11,301.35a45.43,45.43,0,1,1,45.35-45.72A45.36,45.36,0,0,1,1125.11,301.35Z"/><path class="cls-1" d="M1335.64,274.86a18.94,18.94,0,1,1,18.89-19.06A18.91,18.91,0,0,1,1335.64,274.86Z"/><path class="cls-1" d="M229.53,301.35a45.43,45.43,0,1,1,45.35-45.72A45.35,45.35,0,0,1,229.53,301.35Z"/><path class="cls-1" d="M19,274.86A18.94,18.94,0,1,1,37.84,255.8,18.91,18.91,0,0,1,19,274.86Z"/></g></g></svg>