<svg xmlns="http://www.w3.org/2000/svg" viewBox="0 0 245.17 350"><defs><style>.cls-1{fill:#292929;}.cls-2{fill:#e9e7e7;}</style></defs><g id="Layer_2" data-name="Layer 2"><g id="Layer_1-2" data-name="Layer 1"><path class="cls-1" d="M122.53,350c-2.74-3.17-5.37-6-7.78-9-11-13.69-22.1-27.25-32.72-41.19a634.73,634.73,0,0,1-36.86-54.3,418.24,418.24,0,0,1-29.7-57.38C9.64,174,4.86,159.63,2.17,144.61a119.44,119.44,0,0,1-1.74-32.2C3,85.21,13.11,61.27,31.31,40.83A122.28,122.28,0,0,1,133.55.49a120.12,120.12,0,0,1,50.76,16.14,122,122,0,0,1,58.44,129.6A215.74,215.74,0,0,1,230.17,187a388.91,388.91,0,0,1-22.45,45.45A526,526,0,0,1,178,279.21c-10.87,15.11-22.16,29.93-33.54,44.66-6.35,8.23-13.26,16-19.93,24C124,348.51,123.38,349.1,122.53,350Z"/><path class="cls-2" d="M220.62,122.56a97.71,97.71,0,0,0-95.46-98.08C68.71,23.1,24.75,68.62,24.59,122.21c-.17,54,44,99.38,100,98.38A97.84,97.84,0,0,0,220.62,122.56Z"/><path class="cls-1" d="M77.26,109.27,60.57,141.72H49.16L32.47,109.27h9.37l13,26.29,13-26.29Z"/><path class="cls-1" d="M118.57,125.49c0,11-7.37,16.23-15.76,16.23H79.25V109.27h23.56C111.2,109.27,118.57,114.46,118.57,125.49Zm-8.35,0c0-7.88-4.26-9.22-10.57-9.22H87.6v18.45H99.65C106,134.72,110.22,133.38,110.22,125.49Z"/><path class="cls-1" d="M129.93,116.27v8.25h23.18v7H129.93v10.15h-8.35V109.27h34.31v7Z"/><path class="cls-1" d="M208.33,141.72H200V119.47l-13.5,22.25h-6L167,119.47v22.25h-8.34V109.27H169.9l13.58,22.9,13.58-22.9h11.27Z"/></g></g></svg>