<svg xmlns="http://www.w3.org/2000/svg" viewBox="0 0 853 853"><defs><style>.cls-1{fill:none;}.cls-2{fill:#b9b9b9;}</style></defs><g id="Layer_2" data-name="Layer 2"><g id="Layer_1-2" data-name="Layer 1"><rect class="cls-1" width="853" height="853"/><path class="cls-2" d="M294.51,245.21c6.13-11.69,7.74-12.35,19.93-8.7,5.74,1.73,11.49,3.43,17.23,5.18,8.12,2.49,10.27,6.22,8.5,14.55a12,12,0,0,0-.16,1.82c8.37,5.5,21.08,1.9,26.61-6.25,7.47-11,15.28-21.8,22.91-32.72,8.24-11.77,15.52-14.37,29.14-10.28l144.12,43.25c13.05,3.91,17.94,10.29,18.34,23.85.38,13.14.73,26.29,1.14,39.43.34,10.82,5.62,17.79,16,20.94,16.74,5.09,33.39,10.5,50.29,15a47.58,47.58,0,0,1,32.78,60.11c-20.05,66.88-40,133.79-60.25,200.6-7.83,25.83-33.25,39.26-59.3,32.09-1-.26-1.92-.56-2.88-.85Q382.46,590.3,206,537.37c-14.85-4.45-26.1-13-32.52-27.33-5.14-11.51-5-23.2-1.38-35.12q28.66-95.26,57.22-190.55c1.34-4.46,2.68-8.95,4.44-13.26A46.74,46.74,0,0,1,289,243.57C290.9,244.06,292.76,244.69,294.51,245.21Zm168.9,75.68c-59.16-18-125.71,13.3-145.68,79C299,461.53,334.35,525.94,396.49,544.74c63.72,19.29,131.83-19.82,147.37-85.5C556.45,406,521.88,337,463.41,320.89Zm153.42,87.82c6.85,2.05,13.66,4.29,20.57,6.12,8.12,2.15,15-2.42,16.11-10.43.87-6.08-2.56-11.33-9.29-13.5-8.55-2.76-17.19-5.23-25.8-7.8-5.42-1.62-10.79-3.43-16.29-4.72-7.25-1.71-13.44,2.43-15,9.56-1.35,6.43,2.2,12.32,9.11,14.57S610,406.66,616.83,408.71Z"/><path class="cls-2" d="M453.37,353c43.76,12.94,68.72,59.31,56.88,101-13,45.92-58.5,71.44-103.71,58.58C366,501,335.17,456.79,350.89,405.87,362.1,369.55,405.77,339.26,453.37,353Z"/></g></g></svg>