<svg xmlns="http://www.w3.org/2000/svg" viewBox="0 0 153.52 128.02"><defs><style>.cls-1{fill:#999;}</style></defs><g id="Layer_2" data-name="Layer 2"><g id="Layer_1-2" data-name="Layer 1"><path class="cls-1" d="M64.11,44.77H89.43V38.51c.49,0,.8,0,1.12,0h10.73c1.09,0,1.11,0,1.12,1.14,0,1.4,0,2.81,0,4.21a2.55,2.55,0,0,0,.68,1.91q6.6,7.65,13.18,15.33,12,14,24,28a2.15,2.15,0,0,1,.48,1.28c0,8.28.07,16.55,0,24.82a12.79,12.79,0,0,1-10.42,12.6,15.28,15.28,0,0,1-2.86.25Q76.72,128,26,128a12.74,12.74,0,0,1-12.55-8.86,13.49,13.49,0,0,1-.67-4.14c-.06-8.17,0-16.35,0-24.53a2.21,2.21,0,0,1,.59-1.55q16.34-19,32.65-38c1.54-1.79,3.07-3.6,4.62-5.38a1.92,1.92,0,0,0,.51-1.39c0-1.56,0-3.13,0-4.69,0-1,0-1,1-1h11c.92,0,1,0,1,1,0,1.41,0,2.81,0,4.22C64,44,64.08,44.34,64.11,44.77ZM76.72,64.19a25.45,25.45,0,1,0,25.49,25.45A25.45,25.45,0,0,0,76.72,64.19Z"/><path class="cls-1" d="M77.12,0C82.19.33,87.61.68,93,1.05a171.92,171.92,0,0,1,17.09,2.14,122.23,122.23,0,0,1,19,4.63,52.49,52.49,0,0,1,14.27,6.86,23.79,23.79,0,0,1,9.5,13.18,15.51,15.51,0,0,1-.83,11.3c-2.25,4.5-6.11,6.75-10.95,7.43-5.13.72-10-.37-14.81-2.16a21,21,0,0,1-5.92-3.3,17.27,17.27,0,0,1-5-7.28,38.74,38.74,0,0,0-1.68-3.65,9,9,0,0,0-4.51-4.11A78.28,78.28,0,0,0,96.24,22a91.37,91.37,0,0,0-18.19-2.43A72,72,0,0,0,67,20.21a93.8,93.8,0,0,0-18.71,4.35C47,25,45.81,25.46,44.6,26a9.78,9.78,0,0,0-5.44,5.38c-.5,1.14-1,2.28-1.47,3.43a16.07,16.07,0,0,1-8.92,9,32.74,32.74,0,0,1-14.41,3A15.45,15.45,0,0,1,5,43.55a13,13,0,0,1-5-10c-.3-5.71,1.9-10.53,5.54-14.77a31.3,31.3,0,0,1,10.37-7.57A86,86,0,0,1,33,5.34,149.2,149.2,0,0,1,50,2.18Q56.45,1.38,62.9.86C67.51.5,72.14.3,77.12,0Z"/><path class="cls-1" d="M76.72,76.79A12.85,12.85,0,1,1,63.86,89.64,12.87,12.87,0,0,1,76.72,76.79Z"/></g></g></svg>