<svg xmlns="http://www.w3.org/2000/svg" viewBox="0 0 1455.96 329"><defs><style>.cls-1{fill:#e9e7e7;}</style></defs><g id="Layer_2" data-name="Layer 2"><g id="Layer_1-2" data-name="Layer 1"><path class="cls-1" d="M728.23,0q-103,0-205.93,0a33.79,33.79,0,0,0-7.92.68c-10.26,2.54-14,14.55-6.86,22.23,14.42,15.48,29,30.83,43.5,46.23q66.48,70.56,133.06,141.06a119.93,119.93,0,0,0,18.4,16c16.19,11.26,33.1,11.59,49.37.24a134,134,0,0,0,20.24-17.69Q837.26,140.1,902.06,71q23.31-24.73,46.57-49.51c1.32-1.41,2.8-3.09,3.19-4.86A13.46,13.46,0,0,0,941.59.72,34.39,34.39,0,0,0,933.67,0Q831,0,728.23,0Z"/><path class="cls-1" d="M534.16,328.11c8,1.48,381.62,1,385.09-.47-41.93-40.91-83.74-81.73-125.86-122.84-4.07,4.31-7.67,8.46-11.62,12.24-6.24,6-12.3,12.28-19.19,17.45-22.93,17.22-47.11,17.38-70,.16-8.2-6.16-15.23-13.88-22.7-21-3-2.84-5.68-6-8.87-9.32Z"/><path class="cls-1" d="M802.15,195.47c1,1.1,1.73,2,2.54,2.77q23.09,22.5,46.19,45l84.4,82.39c3.81,3.72,6.57,3.93,11,.82s5.8-7.38,5.8-12.57Q952,177.42,952,41c0-1.05-.23-2.1-.46-4.05Z"/><path class="cls-1" d="M504.92,38.64l-1,.32V309.14c0,2.33,0,4.66.08,7,.19,4.92,2.7,8.43,6.75,11,2.57,1.64,4.77,1.74,7.08-.69,3.45-3.61,7.19-6.94,10.77-10.43q60.23-58.86,120.45-117.74c1-1,1.88-2.16,3-3.46Q578.18,116.41,504.92,38.64Z"/><rect class="cls-1" x="1191" y="36.91" width="13.04" height="255.48" rx="6.52"/><rect class="cls-1" x="1442.92" y="125.44" width="13.04" height="78.41" rx="5.35"/><rect class="cls-1" x="251.92" y="36.91" width="13.04" height="255.48" rx="6.52"/><rect class="cls-1" y="125.44" width="13.04" height="78.41" rx="5.35"/></g></g></svg>