<svg xmlns="http://www.w3.org/2000/svg" viewBox="0 0 234.35 206.59"><defs><style>.cls-1{fill:#b9b9b9;}</style></defs><g id="Layer_2" data-name="Layer 2"><g id="Layer_1-2" data-name="Layer 1"><path class="cls-1" d="M4,206.59a2.77,2.77,0,0,1-1.06-.2A3,3,0,0,1,1,203.76l-.13-2.34c-.09-1.7-.18-3.39-.29-5.09a201.61,201.61,0,0,1,.8-39.4,131.42,131.42,0,0,1,10.06-36.76A109.54,109.54,0,0,1,40.61,81c11-9.41,23.73-16.64,39-22.08a150.93,150.93,0,0,1,36.31-8c-.57-2.09-1.15-4.17-1.73-6.26q-1.5-5.4-3-10.81l-.26-1c-1.63-6-3.32-12.23-4.85-18.4a20.47,20.47,0,0,1-.44-6.32C106,3.36,109.46,0,114.08,0a10.48,10.48,0,0,1,2.07.22,18.82,18.82,0,0,1,6.59,2.71c6.89,4.77,13.86,9.67,20.59,14.42q7,4.92,14,9.81c4.15,2.91,8.33,5.78,12.51,8.65s8.41,5.78,12.6,8.71q6.53,4.56,13,9.18,5.83,4.15,11.7,8.28c6.75,4.72,13.69,9.52,20.62,14.24,1.78,1.21,7.19,4.89,6.55,12.17a12.19,12.19,0,0,1-5.41,9.06C216,106.52,202.73,115.79,191,124l-28.39,19.78-14,9.74-6.8,4.74c-6.29,4.39-12.79,8.93-19.22,13.34a18.68,18.68,0,0,1-5.84,2.67,10.75,10.75,0,0,1-2.71.36c-4.9,0-8.38-3.58-8.46-8.7a34.05,34.05,0,0,1,1.16-9.27c2.49-9.29,5.11-18.7,7.64-27.8l2.52-9.06-1.07.08c-3.55.28-6.91.55-10.28.9-13.7,1.42-27,5.51-40.71,12.49a107.25,107.25,0,0,0-25.37,18.27C29.35,161.28,21,173.33,14,188.35c-1.38,3-2.6,6.12-3.78,9.17-.61,1.57-1.22,3.14-1.85,4.7a10,10,0,0,1-2.24,3.49A3,3,0,0,1,4,206.59ZM121.73,62.11a20.85,20.85,0,0,0-2.4.12A163.58,163.58,0,0,0,89.64,67.9,117.59,117.59,0,0,0,55.8,83.83a95.88,95.88,0,0,0-30.87,34.85,112.86,112.86,0,0,0-10.7,30.87c-1.13,5.86-1.77,12-2.37,17.91,11.78-18.69,26.47-32.74,44.64-42.74a132.69,132.69,0,0,1,64.77-16.52c2.21,0,4.46,0,6.7.15a3,3,0,0,1,2.27,1.21,3,3,0,0,1,.5,2.52c-.36,1.44-.7,2.82-1,4.16-.71,2.86-1.37,5.55-2.11,8.25q-2.43,8.88-4.9,17.76-2.61,9.41-5.19,18.83c4.12-2.82,8.46-5.83,13.22-9.15l11.06-7.76q6.61-4.65,13.23-9.28l15.61-10.84q6.85-4.74,13.69-9.5l17.11-12,9.32-6.52,3.79-2.63c2.44-1.69,5-3.44,7.41-5.19a4.61,4.61,0,0,0,1-.93,4.93,4.93,0,0,0-1.08-1c-.78-.61-1.46-1.14-2.16-1.63l-9.18-6.37q-5.72-4-11.43-7.94L190,64Q170.1,50.12,150.21,36.22q-7.53-5.26-15-10.58-7.74-5.48-15.52-10.93c-.72-.5-1.45-1-2.2-1.44Q120.21,23.4,123,33.5q2.2,8,4.4,15.91c.53,2,1,3.91,1.47,6,.23,1,.47,2,.73,3.1a3,3,0,0,1-2.91,3.7c-.94,0-1.84,0-2.72,0S122.47,62.11,121.73,62.11Z"/></g></g></svg>