<svg xmlns="http://www.w3.org/2000/svg" viewBox="0 0 127.21 127.28"><defs><style>.cls-1{fill:#999;}</style></defs><g id="Layer_2" data-name="Layer 2"><g id="Layer_1-2" data-name="Layer 1"><path class="cls-1" d="M0,63.59a63.61,63.61,0,1,1,63.61,63.69A63.65,63.65,0,0,1,0,63.59Zm9.35-.73A54.27,54.27,0,1,0,64.66,9.34,54.32,54.32,0,0,0,9.35,62.86Z"/><path class="cls-1" d="M59.52,43.84V27c0-1.1-.05-2.2,0-3.3a4.06,4.06,0,0,1,3.66-3.82,4.12,4.12,0,0,1,4.34,3,4.66,4.66,0,0,1,.17,1.29q0,17.81,0,35.6a1.43,1.43,0,0,1,0,.29c-.3,1.49.44,2.47,1.47,3.48C74.64,68.81,80,74.26,85.45,79.67A4.62,4.62,0,0,1,87,82.76a4.1,4.1,0,0,1-2.88,4.06,4,4,0,0,1-4.19-1.09L60.73,66.58a4.05,4.05,0,0,1-1.24-3.06c0-6.56,0-13.12,0-19.68Z"/></g></g></svg>